<?xml version="1.0" standalone="no"?>
<!DOCTYPE svg PUBLIC "-//W3C//DTD SVG 20010904//EN"
 "http://www.w3.org/TR/2001/REC-SVG-20010904/DTD/svg10.dtd">
<svg version="1.0" xmlns="http://www.w3.org/2000/svg"
 width="192.000000pt" height="192.000000pt" viewBox="0 0 192.000000 192.000000"
 preserveAspectRatio="xMidYMid meet">
<metadata>
Created by potrace 1.11, written by Peter Selinger 2001-2013
</metadata>
<g transform="translate(0.000000,192.000000) scale(0.100000,-0.100000)"
fill="#000000" stroke="none">
<path d="M1300 1850 c8 -5 20 -10 25 -10 6 0 3 5 -5 10 -8 5 -19 10 -25 10 -5
0 -3 -5 5 -10z"/>
<path d="M1385 1813 c147 -84 285 -210 360 -327 83 -130 138 -287 152 -428 3
-38 10 -68 16 -68 6 0 7 23 3 63 -26 235 -129 443 -299 603 -75 71 -210 163
-262 179 -11 4 3 -6 30 -22z"/>
<path d="M1350 1360 c-24 -15 -7 -19 20 -5 15 8 19 14 10 14 -8 1 -22 -3 -30
-9z"/>
<path d="M863 1342 l-413 -2 0 -103 c0 -118 16 -192 63 -286 31 -63 120 -166
181 -208 l29 -20 -119 -6 c-110 -6 -120 -5 -140 14 -27 25 -104 55 -168 64
-45 7 -47 6 -38 -11 6 -11 22 -30 36 -43 14 -14 26 -28 26 -31 0 -4 -29 -10
-65 -13 -93 -9 -111 -22 -54 -37 24 -7 62 -20 84 -30 232 -105 697 -147 1045
-95 192 30 410 96 410 125 0 21 -153 46 -356 56 -68 4 -124 11 -124 16 0 4 4
8 9 8 16 0 130 111 162 156 l29 42 99 4 c94 3 101 5 138 34 59 48 78 88 78
164 0 76 -19 116 -78 164 -37 30 -43 31 -151 34 -112 4 -113 3 -112 -19 1 -15
-9 -29 -32 -42 -37 -22 -52 -15 -72 32 -7 17 -21 30 -33 32 -12 2 -208 3 -434
1z m787 -77 c65 -34 91 -136 50 -202 -27 -46 -67 -63 -146 -63 -64 0 -66 1
-60 23 20 66 36 158 36 205 l0 52 45 0 c26 0 59 -7 75 -15z m-911 -59 c9 -11
10 -20 1 -36 -13 -24 -38 -23 -53 1 -23 37 25 68 52 35z m294 -24 c21 -21 34
-41 31 -45 -4 -4 -13 -2 -21 4 -25 21 -13 -7 13 -32 l26 -24 -6 23 c-11 32 7
27 43 -13 51 -59 45 -73 -92 -212 -129 -131 -130 -131 -226 -24 -95 106 -95
110 15 229 77 82 138 130 169 132 6 0 28 -17 48 -38z m288 -98 c17 -21 0 -49
-32 -49 -27 0 -37 28 -19 50 16 19 34 19 51 -1z m-163 -197 c4 -20 -25 -34
-40 -19 -15 15 -1 44 19 40 10 -2 19 -11 21 -21z"/>
<path d="M1364 1334 c-18 -14 -18 -14 6 -3 31 14 36 19 24 19 -6 0 -19 -7 -30
-16z"/>
<path d="M1380 1315 c-14 -8 -20 -14 -14 -15 5 0 19 7 30 15 24 18 16 19 -16
0z"/>
<path d="M1896 859 c-31 -310 -216 -583 -508 -751 -29 -16 -44 -27 -33 -23 52
16 187 108 262 179 170 160 273 368 299 604 4 39 3 62 -3 62 -6 0 -14 -32 -17
-71z"/>
<path d="M1300 70 c-8 -5 -10 -10 -5 -10 6 0 17 5 25 10 8 5 11 10 5 10 -5 0
-17 -5 -25 -10z"/>
</g>
</svg>
